<?xml version="1.0" encoding="iso-8859-1"?>
<!-- Generator: Adobe Illustrator 19.0.0, SVG Export Plug-In . SVG Version: 6.00 Build 0)  -->
<svg version="1.1" id="Layer_1" xmlns="http://www.w3.org/2000/svg" xmlns:xlink="http://www.w3.org/1999/xlink" x="0px" y="0px"
	 viewBox="0 0 512 512" style="enable-background:new 0 0 512 512;" xml:space="preserve">
<path style="fill:#787485;" d="M488.454,191.875c0,0,16.031,24.047,16.031,56.11s-8.016,48.094-8.016,48.094
	s-56.11,0-120.235,24.047c-21.006,7.877-55.244,27.662-96.188,30.059c-22.02,1.289-100.529,2.004-160.313-6.012
	c-31.778-4.26-112.219-24.047-112.219-40.078c0-32.063,103.577-28.362,144.282-32.063c88.172-8.016,112.219-48.094,176.344-96.188
	c16.031,24.047,32.063,48.094,80.157,48.094S488.454,191.875,488.454,191.875z"/>
<path style="fill:#696578;" d="M280.047,331.147c-22.02,1.289-100.529,2.004-160.313-6.012
	c-26.795-3.593-88.186-18.224-106.782-32.334c-3.475,3.166-5.438,6.89-5.438,11.293c0,16.031,80.441,35.818,112.219,40.078
	c59.784,8.016,138.293,7.3,160.313,6.012c40.944-2.397,75.182-22.181,96.188-30.059c64.125-24.047,120.235-24.047,120.235-24.047
	v-19.037c0,0-56.11,0-120.235,24.047C355.229,308.965,320.991,328.75,280.047,331.147z"/>
<polygon style="fill:#787485;" points="496.47,352.188 496.47,296.078 392.266,312.11 392.266,352.188 "/>
<path style="fill:#F0F0F1;" d="M291.643,175.843c-20.055,16.466-36.626,31.492-54.586,43.953l34.974,60.251
	c24.247,0,66.825,32.085,86.144,47.728c6.773-2.987,12.827-5.688,18.059-7.65c5.411-2.029,10.764-3.885,16.031-5.586v-63.241
	c-12.32-3.954-30.204-10.4-48.094-19.346C326.25,222.993,299.547,188.631,291.643,175.843z"/>
<path style="fill:#E1E0E4;" d="M390.262,307.1c-5.232,1.962-11.286,4.663-18.059,7.65c-19.32-15.644-61.897-47.728-86.144-47.728
	l-33.925-58.443c-4.988,3.927-9.976,7.679-15.076,11.218l34.974,60.251c24.247,0,66.825,32.085,86.144,47.728
	c6.773-2.987,12.827-5.688,18.059-7.65c5.411-2.029,10.764-3.885,16.031-5.586v-8.177
	C391.598,306.608,390.933,306.848,390.262,307.1z"/>
<g>
	<path style="fill:#FCDE76;" d="M256,432.344c17.708,0,32.063-14.355,32.063-32.063c0,17.708,14.355,32.063,32.063,32.063
		c-17.708,0-32.063,14.355-32.063,32.063C288.063,446.699,273.708,432.344,256,432.344z"/>
	<path style="fill:#FCDE76;" d="M47.593,183.859c17.708,0,32.063-14.355,32.063-32.063c0,17.708,14.355,32.063,32.063,32.063
		c-17.708,0-32.063,14.355-32.063,32.063C79.656,198.214,65.301,183.859,47.593,183.859z"/>
	<path style="fill:#FCDE76;" d="M368.219,87.671c22.134,0,40.078-17.944,40.078-40.078c0,22.134,17.944,40.078,40.078,40.078
		c-22.134,0-40.078,17.944-40.078,40.078C408.297,105.615,390.353,87.671,368.219,87.671z"/>
</g>
<path d="M512,247.984c0-33.947-16.587-59.219-17.294-60.278c-2.589-3.885-8.263-4.448-11.566-1.145
	c-0.3,0.299-30.376,29.861-74.843,29.861c-44.072,0-57.897-20.736-73.904-44.747c-2.358-3.536-7.358-4.395-10.761-1.844
	c-5.653,4.239-11.422,8.738-17.546,13.68c-3.319-4.441-6.106-8.472-8.052-11.619c-2.354-3.807-7.696-4.702-11.161-1.858
	c-3.375,2.77-6.638,5.492-9.832,8.17l-5.798-8.576c-2.325-3.438-6.996-4.34-10.434-2.016c-3.438,2.325-4.34,6.997-2.016,10.434
	l6.683,9.884c-3.391,2.849-6.74,5.64-10.07,8.368l-7.404-9.536c-2.545-3.277-7.265-3.872-10.544-1.327
	c-3.278,2.546-3.873,7.266-1.327,10.544l7.509,9.671c-3.608,2.767-7.221,5.44-10.867,7.969c-3.217,2.232-4.181,6.56-2.215,9.946
	l7.771,13.388c-25.634,16.074-52.09,24.398-87.212,27.591c-7.963,0.723-18.308,1.154-30.288,1.653
	c-2.055,0.086-3.959,0.295-5.657,1.595c-1.933,1.479-3.047,3.854-2.946,6.285c0.101,2.424,1.402,4.691,3.441,6.006
	c1.805,1.163,3.724,1.216,5.788,1.13c12.177-0.507,22.693-0.946,31.023-1.702c37.451-3.405,65.812-12.326,93.401-29.553
	l19.653,33.857c1.345,2.317,3.82,3.742,6.499,3.742c14.018,0,39.901,13.888,71.611,38.313
	c-17.984,7.551-40.037,15.403-64.034,16.807c-20.417,1.196-99.16,2.048-158.875-5.958c-13.637-1.829-39.228-7.069-63.192-14.254
	c-34.819-10.439-41.48-17.551-42.486-18.915c0.566-6.191,11.305-16.57,73.105-20.669c4.141-0.275,7.275-3.855,7.001-7.996
	c-0.275-4.14-3.862-7.282-7.995-7.001C44.062,270.748,0,277.285,0,304.094c0,8.038,5.878,18.081,49.478,31.629
	c25.714,7.991,53.926,13.841,69.258,15.897c40.334,5.408,89.188,6.845,123.578,6.845c17.445,0,31.176-0.371,38.173-0.78
	c32.893-1.926,61.445-14.527,82.293-23.728c7.249-3.199,14.502-6.29,21.973-8.94v27.171c0,4.15,3.365,7.515,7.515,7.515h104.204
	c4.15,0,7.515-3.365,7.515-7.515v-54.529C506.159,292.435,512,275.809,512,247.984z M326.352,186.65
	c15.206,22.219,34.573,44.803,81.945,44.803c37.381,0,65.397-17.919,78.059-27.857c4.369,8.964,10.614,25.144,10.614,44.39
	c0,20.777-3.55,34.409-5.672,40.702c-12.961,0.499-48.578,3.023-91.518,15.668v-53.056c0-3.265-2.109-6.158-5.218-7.155
	c-11.728-3.764-29.407-10.101-47.03-18.912c-9.098-4.549-21.596-17.322-32.121-29.932
	C319.178,192.26,322.809,189.386,326.352,186.65z M373.597,313.09c-4.305,1.615-9.154,3.713-14.29,5.975
	c-0.059-0.05-0.112-0.104-0.173-0.152c-25.012-19.867-58.925-43.316-82.615-46.104l-29.528-50.868
	c1.967-1.44,3.92-2.919,5.869-4.414l6.223,8.015c2.709,3.49,8.006,3.857,11.177,0.777c2.71-2.632,3.009-7.013,0.693-9.995
	l-6.326-8.147c3.087-2.526,6.186-5.105,9.312-7.727l8.566,12.669c2.475,3.659,7.733,4.376,11.102,1.509
	c2.877-2.448,3.463-6.8,1.348-9.927l-9.45-13.976c1.493-1.253,2.997-2.515,4.524-3.787c11.351,16.051,33.925,43.311,50.783,51.739
	c16.007,8.004,32,14.04,43.94,18.063v52.376C381.067,310.363,377.349,311.682,373.597,313.09z M399.781,344.673V320.06
	c40.03-12.254,74.52-15.392,89.174-16.193v40.806H399.781z"/>
<path d="M320.125,424.83c-13.535,0-24.548-11.013-24.548-24.548c0-4.15-3.365-7.515-7.515-7.515s-7.515,3.365-7.515,7.515
	c0,13.535-11.013,24.548-24.548,24.548c-4.15,0-7.515,3.365-7.515,7.515s3.365,7.515,7.515,7.515
	c13.535,0,24.548,11.013,24.548,24.548c0,4.15,3.365,7.515,7.515,7.515s7.515-3.365,7.515-7.515
	c0-13.535,11.013-24.548,24.548-24.548c4.15,0,7.515-3.365,7.515-7.515S324.275,424.83,320.125,424.83z M288.063,441.229
	c-2.472-3.409-5.475-6.413-8.884-8.884c3.409-2.472,6.413-5.475,8.884-8.884c2.472,3.409,5.475,6.413,8.884,8.884
	C293.537,434.816,290.534,437.819,288.063,441.229z"/>
<path d="M47.593,191.374c13.535,0,24.548,11.012,24.548,24.548c0,4.15,3.365,7.515,7.515,7.515c4.15,0,7.515-3.365,7.515-7.515
	c0-13.535,11.013-24.548,24.548-24.548c4.15,0,7.515-3.365,7.515-7.515s-3.365-7.515-7.515-7.515
	c-13.535,0-24.548-11.013-24.548-24.548c0-4.15-3.365-7.515-7.515-7.515c-4.15,0-7.515,3.365-7.515,7.515
	c0,13.535-11.013,24.548-24.548,24.548c-4.15,0-7.515,3.365-7.515,7.515S43.443,191.374,47.593,191.374z M79.656,174.975
	c2.472,3.409,5.475,6.413,8.884,8.884c-3.409,2.472-6.413,5.475-8.884,8.884c-2.472-3.409-5.475-6.413-8.884-8.884
	C74.181,181.387,77.184,178.384,79.656,174.975z"/>
<path d="M368.219,95.186c17.955,0,32.564,14.609,32.564,32.564c0,4.15,3.365,7.515,7.515,7.515s7.515-3.365,7.515-7.515
	c0-17.955,14.609-32.564,32.564-32.564c4.15,0,7.515-3.365,7.515-7.515c0-4.15-3.365-7.515-7.515-7.515
	c-17.955,0-32.564-14.609-32.564-32.564c0-4.15-3.365-7.515-7.515-7.515s-7.515,3.365-7.515,7.515
	c0,17.955-14.609,32.564-32.564,32.564c-4.15,0-7.515,3.365-7.515,7.515C360.704,91.821,364.069,95.186,368.219,95.186z
	 M408.297,73.236c3.715,5.785,8.65,10.72,14.435,14.435c-5.785,3.715-10.72,8.65-14.435,14.435
	c-3.715-5.785-8.65-10.72-14.435-14.435C399.648,83.956,404.582,79.021,408.297,73.236z"/>
<g>
</g>
<g>
</g>
<g>
</g>
<g>
</g>
<g>
</g>
<g>
</g>
<g>
</g>
<g>
</g>
<g>
</g>
<g>
</g>
<g>
</g>
<g>
</g>
<g>
</g>
<g>
</g>
<g>
</g>
</svg>
